<svg width="37" height="34" viewBox="0 0 37 34" fill="none" xmlns="http://www.w3.org/2000/svg">
<g id="simple-icons:gmail">
<path id="Vector" d="M31.7152 9.00517V25.9998C31.7152 27.1044 30.8307 27.9988 29.7384 27.9988H25.1238V16.6698L17.2152 22.6691L9.30667 16.6698V28H4.69204C4.43234 28 4.17518 27.9483 3.93526 27.8477C3.69534 27.7472 3.47737 27.5998 3.29378 27.4141C3.1102 27.2283 2.96461 27.0078 2.86534 26.7652C2.76607 26.5225 2.71505 26.2624 2.71521 25.9998V9.00517C2.71521 6.53337 5.50525 5.12214 7.46034 6.60546L9.30667 8.00692L17.2152 14.0037L25.1238 8.00448L26.9701 6.60546C28.924 5.12336 31.7152 6.53337 31.7152 9.00517Z" fill="#57A88C"/>
</g>
</svg>
