<svg width="35" height="34" viewBox="0 0 35 34" fill="none" xmlns="http://www.w3.org/2000/svg">
<g id="ri:instagram-line">
<path id="Vector" d="M18 13.75C16.9657 13.75 15.9737 14.1451 15.2423 14.8483C14.5109 15.5516 14.1 16.5054 14.1 17.5C14.1 18.4946 14.5109 19.4484 15.2423 20.1517C15.9737 20.8549 16.9657 21.25 18 21.25C19.0343 21.25 20.0263 20.8549 20.7577 20.1517C21.4891 19.4484 21.9 18.4946 21.9 17.5C21.9 16.5054 21.4891 15.5516 20.7577 14.8483C20.0263 14.1451 19.0343 13.75 18 13.75ZM18 11.25C19.7239 11.25 21.3772 11.9085 22.5962 13.0806C23.8152 14.2527 24.5 15.8424 24.5 17.5C24.5 19.1576 23.8152 20.7473 22.5962 21.9194C21.3772 23.0915 19.7239 23.75 18 23.75C16.2761 23.75 14.6228 23.0915 13.4038 21.9194C12.1848 20.7473 11.5 19.1576 11.5 17.5C11.5 15.8424 12.1848 14.2527 13.4038 13.0806C14.6228 11.9085 16.2761 11.25 18 11.25ZM26.45 10.9375C26.45 11.3519 26.2788 11.7493 25.974 12.0424C25.6693 12.3354 25.256 12.5 24.825 12.5C24.394 12.5 23.9807 12.3354 23.676 12.0424C23.3712 11.7493 23.2 11.3519 23.2 10.9375C23.2 10.5231 23.3712 10.1257 23.676 9.83265C23.9807 9.53962 24.394 9.375 24.825 9.375C25.256 9.375 25.6693 9.53962 25.974 9.83265C26.2788 10.1257 26.45 10.5231 26.45 10.9375ZM18 7.5C14.7838 7.5 14.2586 7.50875 12.7623 7.5725C11.7431 7.61875 11.0593 7.75 10.4249 7.9875C9.894 8.17492 9.41404 8.47533 9.0209 8.86625C8.61401 9.24425 8.30116 9.70573 8.1057 10.2162C7.8587 10.8287 7.7222 11.485 7.6754 12.4638C7.6078 13.8438 7.5987 14.3263 7.5987 17.5C7.5987 20.5938 7.6078 21.0975 7.6741 22.5362C7.7222 23.515 7.8587 24.1737 8.1044 24.7825C8.3254 25.3263 8.5854 25.7175 9.017 26.1325C9.4551 26.5525 9.862 26.8037 10.421 27.0112C11.0632 27.25 11.747 27.3825 12.761 27.4275C14.1962 27.4925 14.698 27.5 17.9987 27.5C21.2162 27.5 21.7401 27.4912 23.2364 27.4275C24.253 27.3812 24.9368 27.25 25.5725 27.0138C26.1029 26.8254 26.5827 26.5251 26.9765 26.135C27.4146 25.715 27.6759 25.3237 27.8917 24.785C28.1387 24.17 28.2765 23.5125 28.3233 22.535C28.3909 21.1562 28.3987 20.6725 28.3987 17.5C28.3987 14.4075 28.3896 13.9025 28.3233 12.4638C28.2752 11.4863 28.1374 10.8262 27.8917 10.2162C27.6957 9.70627 27.3835 9.24498 26.9778 8.86625C26.5849 8.47481 26.1049 8.17396 25.5738 7.98625C24.9368 7.74875 24.253 7.6175 23.2364 7.5725C21.8025 7.5075 21.302 7.5 18 7.5ZM18 5C21.5321 5 21.9728 5.0125 23.3599 5.075C24.7431 5.1375 25.6869 5.34625 26.515 5.65625C27.373 5.97375 28.0958 6.40375 28.8186 7.0975C29.4796 7.72237 29.9911 8.47824 30.3175 9.3125C30.6386 10.1087 30.857 11.0162 30.922 12.3475C30.9831 13.68 31 14.1038 31 17.5C31 20.8962 30.987 21.32 30.922 22.6525C30.857 23.9837 30.6386 24.89 30.3175 25.6875C29.992 26.5222 29.4804 27.2782 28.8186 27.9025C28.1686 28.5379 27.3825 29.0297 26.515 29.3438C25.6869 29.6525 24.7431 29.8625 23.3599 29.925C21.9728 29.9838 21.5321 30 18 30C14.4679 30 14.0272 29.9875 12.6401 29.925C11.2569 29.8625 10.3144 29.6525 9.485 29.3438C8.61702 29.0306 7.83079 28.5387 7.1814 27.9025C6.52026 27.2777 6.00875 26.5218 5.6825 25.6875C5.3601 24.8912 5.143 23.9837 5.078 22.6525C5.0156 21.32 5 20.8962 5 17.5C5 14.1038 5.013 13.68 5.078 12.3475C5.143 11.015 5.3601 10.11 5.6825 9.3125C6.00781 8.47772 6.51944 7.72165 7.1814 7.0975C7.83097 6.46154 8.61716 5.96966 9.485 5.65625C10.3131 5.34625 11.2556 5.1375 12.6401 5.075C14.0272 5.01625 14.4679 5 18 5Z" fill="#57A88C"/>
</g>
</svg>
