<svg xmlns="http://www.w3.org/2000/svg" viewBox="0 0 694.71 694.71"><defs><style>.cls-1,.cls-3{fill:#22332f;}.cls-2{fill:#fff;}.cls-3{font-size:61.8px;font-family:RobotaurLaser, Robotaur Laser;}</style></defs><g id="Layer_2" data-name="Layer 2"><g id="Layer_1-2" data-name="Layer 1"><rect class="cls-1" width="694.71" height="694.71"/><path class="cls-2" d="M223.11,338.81a86.39,86.39,0,0,0,71,84.9c1.34,1.88,19.45,27.84,20.88,29.93-1.88.09-3.77.14-5.66.14A115,115,0,1,1,371,241.83c-1.85,1.25-22.35,16.59-25.29,18.8a86.23,86.23,0,0,0-122.63,78.18Z"/><path class="cls-2" d="M369.44,436.79c2.89-1.78,5.7-3.7,8.42-5.72l.08.05a114.86,114.86,0,0,0,46.23-86.37h0c.09-1.84.14-3.68.14-5.51,0-.15,0-.29,0-.43,0-.52,0-1,0-1.55,0-.36,0-.72,0-1.08h0c-.44-19.8-15.2-54.54-15.2-54.54s-18.63,20.3-20.76,22.5A86.17,86.17,0,0,1,386,378.41h0c-.69,1.35-1.41,2.68-2.19,4a85.94,85.94,0,0,1-8.39,11.86l0,0a86.88,86.88,0,0,1-21.65,18.49"/><path class="cls-2" d="M187.25,337.87V338c0,1,0,1.91,0,2.87,0,.32,0,.65,0,1,0,.67,0,1.34.08,2,0,.36,0,.71.06,1.07q0,1,.12,1.92l.08,1c.05.66.11,1.32.17,2,0,.31.06.61.1.93.08.73.16,1.47.25,2.2,0,.22,0,.43.08.66q.18,1.38.39,2.76s0,0,0,.07a122.41,122.41,0,0,0,101.44,102l.83.13c.89.14,1.8.26,2.71.38l1.2.14,1.62.19,1.35.13c.52.05,1,.1,1.53.13l1.34.11,1.61.1,1.27.07,1.79.06,1.1,0c.89,0,1.78,0,2.68,0h.45c.89,0,1.78,0,2.66,0l1.11,0,1.79-.06,1.28-.07,1.59-.1,1.36-.11,11,15.79-.14,15.42H288.45V473.25a136.19,136.19,0,0,1-60-24.92l-11.86,11.88-29.55-29.55L199,418.79a136.13,136.13,0,0,1-24.76-59.09H157.33V317.91h16.59a136.23,136.23,0,0,1,25-60.83l-11.87-11.86,29.55-29.56,11.86,11.88a136.29,136.29,0,0,1,60-24.91V186.78h41.79v15.85a136.33,136.33,0,0,1,60,24.91s-10,7.5-12.45,9.33a121.4,121.4,0,0,0-49.16-19.51l-.83-.14c-.9-.13-1.81-.26-2.71-.37l-1.19-.15c-.55-.06-1.09-.13-1.64-.18l-1.34-.13-1.53-.14-1.34-.1c-.54,0-1.07-.08-1.61-.1l-1.27-.07-1.81-.07-1.08,0-2.73,0h-.34l-2.73,0-1.08,0-1.82.07-1.26.07c-.54,0-1.07.06-1.61.1l-1.33.1-1.55.14-1.33.13c-.56,0-1.1.12-1.65.19l-1.18.14c-.91.11-1.82.24-2.72.37l-.8.13A122.41,122.41,0,0,0,188.8,318.55l-.24,1.47-.15,1.16c-.08.54-.15,1.08-.22,1.62,0,.25-.06.51-.09.77-.13,1.06-.23,2.11-.33,3.17,0,.44-.09.89-.12,1.33s-.07.93-.1,1.39-.07,1-.1,1.52,0,.84-.06,1.27c0,.59,0,1.18-.07,1.79,0,.34,0,.69,0,1C187.27,336,187.25,336.93,187.25,337.87Z"/><path class="cls-2" d="M381.12,454.47q4.67-2.89,9.08-6.14l11.87,11.88,29.54-29.55-11.84-11.85A136,136,0,0,0,442.42,371h-.24q1.4-5.6,2.33-11.34h16.86V317.91H444.78a136.12,136.12,0,0,0-19.9-53.32c-1.52,1.76-7.57,8.33-10.42,11.29a121.38,121.38,0,0,1,15.44,42.66c.08.5.16,1,.23,1.49s.11.76.16,1.14c.08.54.15,1.08.22,1.63l.09.77q.18,1.59.33,3.18l.12,1.32c0,.46.07.93.09,1.39s.07,1,.11,1.52l.06,1.27c0,.59.05,1.19.07,1.78l0,1.05c0,.92,0,1.84,0,2.77v.23c0,.94,0,1.88-.05,2.82,0,.34,0,.66,0,1,0,.67,0,1.33-.08,2l-.06,1.07-.12,1.92c0,.34-.05.69-.08,1-.06.66-.11,1.32-.18,2l-.09.92c-.08.73-.17,1.47-.25,2.2l-.09.66c-.11.92-.24,1.84-.38,2.75a.28.28,0,0,0,0,.09,121.12,121.12,0,0,1-7.66,27.6h.12a121.4,121.4,0,0,1-10.16,19.38h0c-1.14,1.78-2.34,3.53-3.56,5.24-.77,1.07-1.54,2.14-2.35,3.18A123,123,0,0,1,373,442.12"/><g id="Hand"><path class="cls-2" d="M526.55,136.25a2.55,2.55,0,0,1-1.25.64l-49.82,15.44a26,26,0,0,1-4.18-3.73c-.95-1.11-1.29-2.65-1.91-3.36-.36-.41-.41-.88-.52-1a10,10,0,0,0-3.32-1.69,16.26,16.26,0,0,0-2.45-.39l39.34-9.8c9.54-2.38,20.38-.87,24.17,3.35A.37.37,0,0,1,526.55,136.25Z"/><path class="cls-2" d="M533.7,146.29a2,2,0,0,0-.81.9S510,185.72,510,186.11s1.15.81,4.13,2.31c.71.49,2.17,1,2.94,1.38a3.6,3.6,0,0,1,.9.66,7.67,7.67,0,0,1,1.81,4,11.42,11.42,0,0,1,.12,2l15-30.15c3.63-7.31,3.35-16.28-.61-20A.45.45,0,0,0,533.7,146.29Z"/><path class="cls-2" d="M520.29,193.33a2.7,2.7,0,0,0-.08-.41,5.12,5.12,0,0,0-.6-1.5,5.23,5.23,0,0,0-3.27-2.43L489,182.14a7.81,7.81,0,0,0-.29-.81c-.11-.29-.23-.56-.36-.84a14.29,14.29,0,0,0-6.87-6.81,7.89,7.89,0,0,0-.91-.37,9.18,9.18,0,0,0-.88-.31l-.42-.11-4.91-14.32-.75-2-.76-2.06-3.31-9a5.26,5.26,0,0,0-2.77-3q-.27-.12-.54-.21l-.22-.07c-.17-.05-.34-.08-.52-.12h0c-.14,0-.28,0-.43-.06l-.46,0-.38,0-.23,0a2.5,2.5,0,0,0-.38.06,3.2,3.2,0,0,0-.42.1,4.26,4.26,0,0,0-.47.15c-.26.1-.52.21-.77.33l-.38.18a3.35,3.35,0,0,0-.36.21c-.2.11-.39.23-.58.36,0,0,0,0,0,0a12.08,12.08,0,0,0-1,.8,9.56,9.56,0,0,0-1,1s0,0,0,0-.27.31-.39.48-.27.36-.39.54-.22.35-.32.52l-.08.13c-.1.17-.18.33-.27.51s-.18.37-.26.56a1.31,1.31,0,0,0-.08.21l-.18.46c-.07.21-.13.42-.19.63h0c-.05.2-.1.38-.14.58a6.18,6.18,0,0,0-.13.75,5.7,5.7,0,0,0-.06.58,1,1,0,0,0,0,.17c0,.2,0,.41,0,.61a10.62,10.62,0,0,0,.16,1.86l5.24,33.64v0a14.41,14.41,0,0,0,1.23,5,12.84,12.84,0,0,0,.94,1.71,14.19,14.19,0,0,0,8.41,6.13,15,15,0,0,0,3.17.43h0l34.34,2.48.73,0q.38,0,.72,0c.25,0,.49,0,.72-.08s.47-.07.7-.12h0a5.29,5.29,0,0,0,.57-.15c.28-.07.54-.16.81-.25s.38-.14.57-.23l.07,0,.58-.27a.06.06,0,0,1,.05,0c.15-.09.32-.18.47-.28l.11-.06c.2-.12.39-.25.58-.38h0c.16-.12.32-.24.47-.37a7.6,7.6,0,0,0,.61-.52l.38-.37a2.09,2.09,0,0,0,.2-.22c.13-.13.24-.27.36-.41s.28-.37.42-.56a9,9,0,0,0,.62-1,9.39,9.39,0,0,0,.71-1.58,3.58,3.58,0,0,0,.11-.35,3.94,3.94,0,0,0,.14-.49,5.29,5.29,0,0,0,.16-1.72C520.33,193.59,520.31,193.46,520.29,193.33Zm-54.57-1.17a10.57,10.57,0,0,1-.83-1.77,11.26,11.26,0,0,1,.05-7.83c.11-.29.23-.57.36-.85s.3-.59.47-.88A11.27,11.27,0,0,1,481,176.67c.28.15.57.33.84.51s.49.35.73.54a11.46,11.46,0,0,1,1.78,1.77,10.06,10.06,0,0,1,.66.91,9.17,9.17,0,0,1,.5.86h0a11.07,11.07,0,0,1,1.32,5.27,11.32,11.32,0,0,1-5.1,9.44h0c-.26.17-.52.33-.8.48s-.52.27-.79.39a11.12,11.12,0,0,1-4.58,1,10.19,10.19,0,0,1-1.24-.07A11.27,11.27,0,0,1,465.72,192.16Z"/><circle class="cls-2" cx="475.5" cy="186.54" r="7.13" transform="translate(7.36 390.87) rotate(-45)"/></g><path class="cls-2" d="M460.06,193.83,323.11,316.2a47.8,47.8,0,0,0-21.39-13L458,186.78A19.29,19.29,0,0,0,460.06,193.83Z"/><path class="cls-2" d="M471.63,203.68a27,27,0,0,1-5.76-3.05,19.34,19.34,0,0,1-2.54-2.33L327.84,321.79a47.46,47.46,0,0,1,8.62,27.32c0,.5,0,1,0,1.49Z"/><path class="cls-2" d="M288.51,308.46a40.61,40.61,0,1,0,40.61,40.61A40.65,40.65,0,0,0,288.51,308.46Zm0,74.83a34.22,34.22,0,1,1,34.22-34.22A34.26,34.26,0,0,1,288.51,383.29Z"/><path class="cls-2" d="M365.4,490.83H349.89l-65.15-94.16c1.24.09,2.5.14,3.77.14a47.3,47.3,0,0,0,11.23-1.34Z"/><path class="cls-2" d="M373.76,490.83h22.42L323.92,381.06a47.94,47.94,0,0,1-16.31,11.76Z"/><g id="layer1"><path id="path4955-6-0-37-4-4-6-4-7-7-7" class="cls-2" d="M283.09,319.2a30.2,30.2,0,0,0-24,23.53,33.94,33.94,0,0,0,0,12.17,30.18,30.18,0,0,0,28.18,24,29.76,29.76,0,0,0,14.9-3.18,30.19,30.19,0,0,0,14.37-15.52l-.92,0h-1.11l-2.5-.07-1.38,0-.31.57a24.7,24.7,0,0,1-18.63,12.67,46.53,46.53,0,0,1-4.85.14,24.56,24.56,0,0,1-9.6-2.74,24.91,24.91,0,0,1-10.69-10.83,24.72,24.72,0,0,1,3.34-27.16,26.87,26.87,0,0,1,4.74-4.25,25.84,25.84,0,0,1,6.57-3.21,3.92,3.92,0,0,0,.86-.32c0-.09.87-4.82.9-4.84l.09-.91ZM290.2,326a.78.78,0,0,0-.33,0c-.05,0-1.34,7-1.3,7a9.35,9.35,0,0,0,1,.1,15.45,15.45,0,0,1,7.12,2.19c1,.58,1.19.76,1.08.83s-1.3,1-2.34,1.88a12.61,12.61,0,0,0-6.93-2.07,12.8,12.8,0,0,0-12.75,12.74,12.66,12.66,0,0,0,.88,4.62L268.43,360l1.21,1.51c.66.83,1.68,2.09,2.27,2.79,1,1.26,1.09,1.23,1.09,1.23l8.27-6.35a12.73,12.73,0,0,0,19.22-14.81c.81-.61,1.61-1.21,2.48-1.88a11.55,11.55,0,0,1,1,3.15,16.55,16.55,0,0,1,.12,5.69,6.93,6.93,0,0,0-.12.77s1.59.07,3.52.12,3.56.1,3.62.09.28-1,.33-2.83a21.7,21.7,0,0,0-1.21-8.13,22.86,22.86,0,0,0-11.48-13,21.67,21.67,0,0,0-6.05-2,25.25,25.25,0,0,0-2.55-.32Zm-8.5,1a22.05,22.05,0,0,0-3.55,1.46,22.93,22.93,0,0,0-12.3,17.91,30.36,30.36,0,0,0,0,5.22,23.85,23.85,0,0,0,1.85,6.63l5.94-4.57a15.71,15.71,0,0,1,5.94-17.7,1.9,1.9,0,0,0,.56-.52c.07-.31,1.54-8.41,1.52-8.43Zm6.81,15.23A6.5,6.5,0,1,1,282,348.7,6.44,6.44,0,0,1,288.51,342.21ZM299.9,359.8l-.47.42a15.83,15.83,0,0,1-5.67,3.43,14.87,14.87,0,0,1-4.6.83,14.47,14.47,0,0,1-3.71-.3,16.11,16.11,0,0,1-5.51-2.29l-5.54,4.84c.49.38,1.11.84,1.55,1.13a23.15,23.15,0,0,0,10.54,3.74h0a30.62,30.62,0,0,0,4.49,0,22.79,22.79,0,0,0,13.87-6.63,21.83,21.83,0,0,0,3.31-4.18l.46-.75H308l-4.36-.1-3.76-.11Z"/></g><rect class="cls-2" x="143.97" y="495.78" width="406.5" height="85"/><text class="cls-3" transform="translate(170.28 557.77)">CYB:ORG</text></g></g></svg>