<svg xmlns="http://www.w3.org/2000/svg" viewBox="0 0 339.13 320.83"><defs><style>.cls-1{fill:#63958b;}.cls-2{fill:#8ed1c3;}.cls-3{fill:#89c0a6;}.cls-4{fill:#fff;}</style></defs><g id="Layer_2" data-name="Layer 2"><g id="Layer_1-2" data-name="Layer 1"><path class="cls-1" d="M58.69,185.18a77.09,77.09,0,0,0,63.38,75.76c1.19,1.68,17.36,24.85,18.63,26.71-1.68.08-3.36.12-5,.12a102.59,102.59,0,1,1,55-189.12c-1.65,1.12-19.95,14.8-22.57,16.77A77,77,0,0,0,58.69,185.18Z"/><path class="cls-1" d="M189.27,272.62q3.87-2.4,7.51-5.11l.07.05a102.46,102.46,0,0,0,41.25-77.07h0c.09-1.64.13-3.28.13-4.92,0-.12,0-.25,0-.38,0-.46,0-.92,0-1.38s0-.64,0-1h0c-.4-17.68-13.57-48.67-13.57-48.67S208,152.29,206.11,154.25A76.84,76.84,0,0,1,204,220.52h0c-.62,1.2-1.26,2.39-1.95,3.57a77,77,0,0,1-7.49,10.58l0,0a77.56,77.56,0,0,1-19.32,16.5"/><path class="cls-2" d="M26.7,184.34v.16c0,.85,0,1.71,0,2.56l0,.86c0,.6,0,1.2.07,1.8,0,.31,0,.63.05.95,0,.58.07,1.14.11,1.71l.07.93c.05.59.1,1.18.16,1.77,0,.28.05.55.08.83.07.65.15,1.31.23,2,0,.2,0,.39.07.59.11.83.22,1.64.35,2.46,0,0,0,0,0,.07a109.21,109.21,0,0,0,90.51,91l.74.12,2.42.34,1.08.12c.48.07,1,.12,1.44.17l1.2.12c.46,0,.91.09,1.37.12l1.2.09,1.43.09,1.13.07,1.6.05,1,0c.8,0,1.59,0,2.39,0h.41l2.37,0,1,0,1.6-.05,1.14-.07,1.42-.09,1.21-.09,9.83,14.09-.13,13.75H117V305.14a121.45,121.45,0,0,1-53.5-22.23l-10.59,10.6L26.55,267.14l10.59-10.59a121.35,121.35,0,0,1-22.09-52.73H0V166.54H14.81a121.48,121.48,0,0,1,22.33-54.28L26.55,101.67,52.91,75.3,63.5,85.89A121.67,121.67,0,0,1,117,63.67V49.53h37.29V63.67A121.71,121.71,0,0,1,207.8,85.89s-9,6.7-11.11,8.33a108.25,108.25,0,0,0-43.86-17.41l-.74-.12-2.42-.33-1.07-.14-1.46-.16c-.39,0-.79-.08-1.19-.12l-1.37-.12-1.2-.09c-.47,0-.95-.07-1.43-.09s-.75,0-1.13-.06l-1.62-.06c-.31,0-.64,0-1,0-.81,0-1.62,0-2.44,0h-.3c-.82,0-1.63,0-2.44,0-.32,0-.64,0-1,0l-1.63.06-1.12.06q-.72,0-1.44.09l-1.18.09-1.38.12c-.4,0-.8.07-1.19.12l-1.48.17-1.05.13q-1.22.15-2.43.33l-.7.12A109.2,109.2,0,0,0,28.08,167.1l-.21,1.32c-.05.34-.09.68-.14,1s-.13,1-.19,1.45c0,.22-.06.45-.08.69-.12.94-.21,1.88-.3,2.82,0,.4-.07.8-.11,1.19L27,176.84c0,.45-.05.91-.08,1.36s0,.75-.06,1.13l-.06,1.59,0,.94C26.71,182.68,26.7,183.51,26.7,184.34Z"/><path class="cls-2" d="M199.69,288.39q4.17-2.58,8.11-5.48l10.59,10.6,26.36-26.36-10.57-10.58a121.22,121.22,0,0,0,20.21-42.63h-.21q1.24-5,2.07-10.12H271.3V166.54H256.49A121.4,121.4,0,0,0,238.74,119c-1.36,1.57-6.75,7.43-9.3,10.07a108.16,108.16,0,0,1,13.78,38.07l.21,1.33c0,.33.09.67.14,1,.07.49.13,1,.19,1.46,0,.22.06.45.08.69.11.94.21,1.89.3,2.83,0,.39.07.79.1,1.18s.07.83.09,1.24l.09,1.36.06,1.13.06,1.59,0,.94c0,.82,0,1.64,0,2.47v.2c0,.85,0,1.68,0,2.52,0,.3,0,.59,0,.88,0,.6,0,1.19-.07,1.79l-.06.95c0,.58-.07,1.14-.1,1.71,0,.31-.05.62-.07.93-.06.59-.1,1.18-.17,1.77,0,.28,0,.55-.07.83-.07.65-.15,1.31-.23,2,0,.2-.05.39-.08.59-.1.82-.22,1.64-.34,2.46a.17.17,0,0,0,0,.08,107.8,107.8,0,0,1-6.83,24.63h.11a108.86,108.86,0,0,1-9.07,17.29h0c-1,1.59-2.08,3.14-3.18,4.68-.68,1-1.37,1.9-2.09,2.83a109.71,109.71,0,0,1-29.85,26.94"/><g id="Hand"><path class="cls-2" d="M329.46,4.43a2.21,2.21,0,0,1-1.11.57L283.9,18.78a23.11,23.11,0,0,1-3.74-3.33c-.84-1-1.15-2.36-1.7-3-.32-.37-.36-.78-.46-.85a9,9,0,0,0-3-1.51,15.48,15.48,0,0,0-2.18-.35L308,1c8.51-2.13,18.19-.78,21.56,3A.31.31,0,0,1,329.46,4.43Z"/><path class="cls-2" d="M335.85,13.39a1.78,1.78,0,0,0-.73.81s-20.44,34.37-20.44,34.73,1,.72,3.68,2.06c.64.44,1.94.86,2.62,1.23a3.12,3.12,0,0,1,.81.59,6.85,6.85,0,0,1,1.61,3.53,9.89,9.89,0,0,1,.11,1.81l13.34-26.9c3.24-6.52,3-14.53-.54-17.83A.41.41,0,0,0,335.85,13.39Z"/><path class="cls-2" d="M323.88,55.37c0-.12,0-.25-.07-.37a4.54,4.54,0,0,0-.54-1.33,4.65,4.65,0,0,0-2.92-2.17l-24.44-6.12a6.93,6.93,0,0,0-.26-.72c-.1-.26-.2-.5-.32-.75a12.69,12.69,0,0,0-6.13-6.07,7.27,7.27,0,0,0-.81-.34l-.78-.27-.38-.1-4.38-12.78-.67-1.83-.68-1.84-3-8A4.62,4.62,0,0,0,276.07,10a3.85,3.85,0,0,0-.47-.19l-.2-.06a4.35,4.35,0,0,0-.46-.11h0a2.6,2.6,0,0,0-.39-.05,2.68,2.68,0,0,0-.41,0h-.34a1.2,1.2,0,0,0-.2,0,1.86,1.86,0,0,0-.34,0l-.38.09-.41.13a7.17,7.17,0,0,0-.69.3l-.34.17a2,2,0,0,0-.32.18c-.18.1-.35.21-.52.32,0,0,0,0,0,0a8.23,8.23,0,0,0-.93.72,8.53,8.53,0,0,0-.85.85l0,0c-.12.14-.24.28-.35.43s-.24.32-.35.49-.19.31-.28.46a.41.41,0,0,0-.07.11,5.06,5.06,0,0,0-.24.46,4.52,4.52,0,0,0-.23.5,1.42,1.42,0,0,0-.08.18l-.15.42c-.07.19-.13.37-.18.56h0c0,.18-.09.34-.12.52s-.09.44-.12.66,0,.35-.05.52a.76.76,0,0,0,0,.15c0,.18,0,.37,0,.55a9.23,9.23,0,0,0,.15,1.66l4.67,30v0a12.83,12.83,0,0,0,1.1,4.43,11.38,11.38,0,0,0,.84,1.53,12.65,12.65,0,0,0,7.5,5.46,13.22,13.22,0,0,0,2.83.39h0l30.64,2.21.66,0,.64,0,.64-.07c.21,0,.42-.06.63-.11h0l.52-.13c.24-.07.48-.14.71-.23s.34-.13.51-.2l.07,0,.52-.24s0,0,0,0l.43-.25.09-.05c.18-.11.36-.22.52-.34h0a4.35,4.35,0,0,0,.42-.33c.19-.15.37-.3.55-.47l.33-.32.19-.2c.11-.12.21-.24.31-.37s.26-.33.38-.49a8.07,8.07,0,0,0,.55-.88,8.53,8.53,0,0,0,.63-1.41,1.6,1.6,0,0,0,.1-.31c.05-.14.09-.29.13-.44a4.7,4.7,0,0,0,.14-1.53C323.91,55.6,323.9,55.49,323.88,55.37Zm-48.7-1a9.79,9.79,0,0,1-.74-1.57,10,10,0,0,1-.6-3.44,10.3,10.3,0,0,1,.2-2,10.09,10.09,0,0,1,.45-1.54,7.19,7.19,0,0,1,.32-.76c.12-.27.27-.53.41-.78a10.05,10.05,0,0,1,13.55-3.72,8.53,8.53,0,0,1,.76.46c.22.15.43.31.64.48A10.33,10.33,0,0,1,291.76,43c.21.26.4.53.59.81a7.37,7.37,0,0,1,.45.77h0a10,10,0,0,1,1.17,4.7,10.06,10.06,0,0,1-4.55,8.42h0c-.23.15-.47.3-.72.43s-.46.24-.7.35a10.06,10.06,0,0,1-5.19.81A10.07,10.07,0,0,1,275.18,54.32Z"/><circle class="cls-1" cx="283.91" cy="49.31" r="6.36"/></g><path class="cls-2" d="M270.13,55.82,147.92,165a42.7,42.7,0,0,0-19.08-11.62L268.32,49.53A17.19,17.19,0,0,0,270.13,55.82Z"/><path class="cls-1" d="M280.45,64.6a24.14,24.14,0,0,1-5.13-2.71,17.31,17.31,0,0,1-2.27-2.09L152.15,170a42.26,42.26,0,0,1,7.69,24.37c0,.45,0,.89,0,1.33Z"/><path class="cls-3" d="M117.05,158.1a36.24,36.24,0,1,0,36.24,36.24A36.28,36.28,0,0,0,117.05,158.1Zm0,66.77a30.54,30.54,0,1,1,30.54-30.53A30.56,30.56,0,0,1,117.05,224.87Z"/><path class="cls-2" d="M185.66,320.83H171.83l-58.14-84c1.11.09,2.23.13,3.36.13a42.56,42.56,0,0,0,10-1.19Z"/><path class="cls-1" d="M193.13,320.83h20l-64.48-97.95a42.78,42.78,0,0,1-14.55,10.5Z"/><g id="layer1"><path id="path4955-6-0-37-4-4-6-4-7-7-7" class="cls-4" d="M112.22,167.68a27,27,0,0,0-21.38,21,30.33,30.33,0,0,0,0,10.86A26.94,26.94,0,0,0,116,221a26.48,26.48,0,0,0,13.29-2.83,26.92,26.92,0,0,0,12.82-13.85l-.82,0-1,0c-.54,0-1.55,0-2.23-.06l-1.23,0-.28.5A22.07,22.07,0,0,1,119.93,216a39.41,39.41,0,0,1-4.33.12,22,22,0,0,1-8.57-2.44A22.21,22.21,0,0,1,97.5,204a22,22,0,0,1,3-24.23A24.4,24.4,0,0,1,104.7,176a22.49,22.49,0,0,1,5.87-2.86,3.32,3.32,0,0,0,.76-.29c0-.08.79-4.3.8-4.32l.09-.81Zm6.34,6a.71.71,0,0,0-.29,0c0,.05-1.2,6.26-1.16,6.3s.42.05.9.08a13.84,13.84,0,0,1,6.35,2c.85.52,1.06.68,1,.74s-1.17.92-2.1,1.67a11.28,11.28,0,0,0-6.18-1.84,11.35,11.35,0,0,0-10.59,15.49l-7.33,6,1.08,1.35,2,2.49c.93,1.12,1,1.1,1,1.1l7.37-5.67a11.29,11.29,0,0,0,6.46,2A11.43,11.43,0,0,0,128.43,194a11.06,11.06,0,0,0-.69-3.87c.73-.55,1.44-1.08,2.22-1.69a10.47,10.47,0,0,1,.93,2.82,14.7,14.7,0,0,1,.11,5.07,6.52,6.52,0,0,0-.11.7l3.14.1c1.73.05,3.18.09,3.23.08s.25-.87.3-2.53a19.41,19.41,0,0,0-1.08-7.25,20.41,20.41,0,0,0-10.24-11.63,19.84,19.84,0,0,0-5.4-1.8,22.2,22.2,0,0,0-2.28-.29Zm-7.58.91a18.68,18.68,0,0,0-3.17,1.3,20.45,20.45,0,0,0-11,16,26.88,26.88,0,0,0,0,4.66,20.88,20.88,0,0,0,1.66,5.92l5.29-4.08a14,14,0,0,1,5.3-15.8,1.76,1.76,0,0,0,.5-.46c.07-.27,1.37-7.5,1.36-7.52Zm6.07,13.59a5.8,5.8,0,1,1-5.79,5.79A5.75,5.75,0,0,1,117.05,188.22Zm10.16,15.69-.41.37a13.86,13.86,0,0,1-5.06,3.07,14.48,14.48,0,0,1-7.42.47,14.37,14.37,0,0,1-4.91-2l-5,4.32c.44.34,1,.75,1.39,1a20.69,20.69,0,0,0,9.4,3.33h0a26.88,26.88,0,0,0,4,0,20.32,20.32,0,0,0,12.38-5.91,19.3,19.3,0,0,0,3-3.73l.41-.67h-.53l-3.9-.09-3.36-.1Z"/></g></g></g></svg>