<svg xmlns="http://www.w3.org/2000/svg" viewBox="0 0 699.42 699.42"><defs><style>.cls-1,.cls-6{fill:#1d1d1d;}.cls-2{fill:#63958b;}.cls-3{fill:#8ed1c3;}.cls-4{fill:#89c0a6;}.cls-5{fill:#fff;}.cls-6{font-size:62.8px;font-family:RobotaurLaser, Robotaur Laser;}</style></defs><g id="Layer_2" data-name="Layer 2"><g id="Layer_1-2" data-name="Layer 1"><rect class="cls-1" width="699.42" height="699.42"/><path class="cls-2" d="M245.7,334a77.09,77.09,0,0,0,63.38,75.76c1.19,1.68,17.36,24.85,18.62,26.71-1.67.08-3.35.12-5.05.12a102.59,102.59,0,1,1,55-189.12c-1.64,1.12-19.94,14.8-22.56,16.77A77,77,0,0,0,245.7,334Z"/><path class="cls-2" d="M376.27,421.43q3.89-2.4,7.52-5.11l.07.05a102.54,102.54,0,0,0,41.25-77.07h0c.08-1.64.12-3.28.13-4.92,0-.12,0-.25,0-.38,0-.46,0-.92,0-1.38s0-.64,0-1h0C424.81,314,411.64,283,411.64,283S395,301.1,393.12,303.06A76.93,76.93,0,0,1,391,369.33h0q-.93,1.8-2,3.57a77,77,0,0,1-7.49,10.58l-.05,0A77.42,77.42,0,0,1,362.23,400"/><path class="cls-3" d="M213.7,333.15v.16c0,.85,0,1.7,0,2.56,0,.29,0,.57,0,.86,0,.6,0,1.2.07,1.8,0,.31,0,.63,0,1,0,.58.06,1.14.11,1.71l.07.93c.05.59.1,1.18.16,1.77,0,.27.05.55.08.83.07.65.15,1.31.23,2,0,.2,0,.39.07.59.1.83.22,1.64.35,2.46v.07a109.23,109.23,0,0,0,90.52,91l.74.12,2.42.34,1.07.12,1.45.17,1.2.12c.46,0,.91.09,1.37.12l1.19.09,1.43.09,1.14.06c.53,0,1.06,0,1.6.06l1,0c.8,0,1.59,0,2.39,0h.4c.8,0,1.59,0,2.38,0l1,0,1.6-.06L329,442l1.41-.09,1.21-.09,9.83,14.09-.12,13.75H304V454a121.45,121.45,0,0,1-53.5-22.23l-10.59,10.6L213.56,416l10.58-10.59a121.59,121.59,0,0,1-22.09-52.73H187V315.35h14.8a121.48,121.48,0,0,1,22.33-54.28l-10.58-10.59,26.36-26.37,10.59,10.59A121.67,121.67,0,0,1,304,212.48V198.34H341.3v14.14a121.71,121.71,0,0,1,53.51,22.22s-9,6.7-11.11,8.33a108.31,108.31,0,0,0-43.86-17.41l-.74-.12-2.43-.34-1.06-.13-1.46-.16c-.4-.05-.79-.08-1.2-.12l-1.36-.12-1.2-.09c-.47,0-1-.07-1.44-.09s-.74,0-1.12-.06l-1.62-.06-1,0-2.44,0h-.3c-.82,0-1.64,0-2.44,0l-1,0-1.62.06-1.12.06-1.44.09-1.18.09-1.39.12c-.39,0-.79.07-1.18.12l-1.48.17-1.05.12-2.43.34-.71.12a109.2,109.2,0,0,0-90.41,90.29l-.21,1.32c0,.34-.1.68-.14,1s-.13,1-.2,1.44c0,.23,0,.46-.07.7-.12.94-.21,1.88-.3,2.82,0,.4-.08.8-.11,1.19l-.09,1.24-.09,1.36c0,.38,0,.75,0,1.13,0,.53-.05,1.06-.06,1.59,0,.31,0,.62,0,.93C213.72,331.49,213.7,332.32,213.7,333.15Z"/><path class="cls-3" d="M386.7,437.2q4.16-2.58,8.11-5.48l10.58,10.6L431.76,416l-10.57-10.57a121.4,121.4,0,0,0,20.21-42.63h-.21c.82-3.32,1.52-6.7,2.07-10.12h15.05V315.35H443.5a121.4,121.4,0,0,0-17.75-47.58c-1.36,1.57-6.76,7.43-9.3,10.07a108.16,108.16,0,0,1,13.78,38.07l.21,1.33c0,.33.09.67.14,1s.13,1,.19,1.46c0,.22.05.45.08.69.11.94.21,1.88.29,2.83,0,.39.08.79.11,1.18l.09,1.24.09,1.36c0,.37,0,.75.05,1.13,0,.53,0,1.06.07,1.59,0,.31,0,.63,0,.94,0,.82,0,1.63,0,2.47v.2c0,.84,0,1.68,0,2.52,0,.3,0,.59,0,.88,0,.6,0,1.19-.07,1.79l-.06,1c0,.58-.07,1.14-.11,1.71,0,.31,0,.62-.07.93-.05.59-.1,1.18-.16,1.77,0,.28-.05.55-.08.83-.07.65-.14,1.31-.22,2,0,.2,0,.39-.08.59-.1.82-.22,1.64-.34,2.46a.17.17,0,0,0,0,.08,107.82,107.82,0,0,1-6.84,24.63h.12a108.86,108.86,0,0,1-9.07,17.29h0c-1,1.59-2.08,3.14-3.18,4.68-.69.95-1.37,1.9-2.1,2.83a109.73,109.73,0,0,1-29.85,26.94"/><g id="Hand"><path class="cls-3" d="M516.47,153.24a2.25,2.25,0,0,1-1.11.57L470.9,167.59a22.81,22.81,0,0,1-3.73-3.33c-.85-1-1.15-2.36-1.7-3-.32-.37-.37-.78-.47-.85a8.85,8.85,0,0,0-3-1.51,14.09,14.09,0,0,0-2.19-.35L495,149.82c8.51-2.13,18.18-.78,21.56,3A.31.31,0,0,1,516.47,153.24Z"/><path class="cls-3" d="M522.85,162.2a1.71,1.71,0,0,0-.72.81s-20.45,34.37-20.45,34.73,1,.72,3.69,2c.63.45,1.94.87,2.62,1.24a3.29,3.29,0,0,1,.81.59,6.85,6.85,0,0,1,1.61,3.53,9.89,9.89,0,0,1,.11,1.81l13.34-26.9c3.24-6.52,3-14.53-.55-17.83A.41.41,0,0,0,522.85,162.2Z"/><path class="cls-3" d="M510.89,204.18a2.21,2.21,0,0,0-.08-.37,4.26,4.26,0,0,0-.53-1.33,4.64,4.64,0,0,0-2.93-2.17l-24.43-6.12c-.08-.24-.17-.48-.26-.72s-.21-.5-.32-.75a12.75,12.75,0,0,0-6.13-6.08q-.4-.18-.81-.33c-.26-.1-.52-.19-.79-.27l-.37-.1-4.38-12.78-.68-1.83-.68-1.84-2.95-8a4.65,4.65,0,0,0-2.47-2.66,4,4,0,0,0-.48-.19,1.06,1.06,0,0,0-.19-.06,4,4,0,0,0-.47-.11h0a2.6,2.6,0,0,0-.39-.05,2.75,2.75,0,0,0-.41,0h-.34l-.2,0-.34.05-.38.09-.41.13c-.24.09-.47.19-.7.3l-.33.17a2,2,0,0,0-.32.18c-.18.1-.36.21-.52.32,0,0,0,0,0,0a7.42,7.42,0,0,0-.93.72,6.82,6.82,0,0,0-.85.85s0,0,0,0-.24.28-.35.43-.24.32-.35.49l-.29.46-.06.11a4,4,0,0,0-.24.46,4.59,4.59,0,0,0-.24.5,1.34,1.34,0,0,0-.07.18l-.16.42c-.06.19-.12.37-.17.56h0a4.87,4.87,0,0,0-.12.52c-.05.21-.09.44-.12.66l-.06.52v.15c0,.18,0,.37,0,.55a8.47,8.47,0,0,0,.15,1.66l4.67,30v0a12.59,12.59,0,0,0,9.44,11.42,13.22,13.22,0,0,0,2.83.39h0l30.64,2.2.66,0c.21,0,.43,0,.64,0a6.12,6.12,0,0,0,.63-.06,5.89,5.89,0,0,0,.63-.11h0l.51-.13c.25-.07.48-.14.72-.23s.34-.13.51-.2l.06,0,.52-.24,0,0,.43-.25.09-.05.52-.34a0,0,0,0,0,0,0,4.46,4.46,0,0,0,.43-.33c.18-.15.37-.3.54-.47s.23-.22.34-.32.13-.13.18-.2.22-.24.32-.37l.38-.49a10,10,0,0,0,.55-.88,8.53,8.53,0,0,0,.63-1.41,1.6,1.6,0,0,0,.1-.31c0-.14.09-.29.13-.44a4.69,4.69,0,0,0,.13-1.53C510.92,204.41,510.9,204.3,510.89,204.18Zm-48.7-1.05a9.79,9.79,0,0,1-.74-1.57,10,10,0,0,1-.61-3.44,9.59,9.59,0,0,1,.21-2,10.06,10.06,0,0,1,.44-1.54c.1-.26.21-.51.32-.76s.27-.53.42-.78a10.05,10.05,0,0,1,13.55-3.72c.25.14.51.29.75.45s.44.32.65.49a9.9,9.9,0,0,1,1.59,1.58c.21.26.4.53.59.81s.31.5.45.77h0a10,10,0,0,1,1.17,4.7,10.06,10.06,0,0,1-4.55,8.42h0c-.23.15-.46.3-.71.43s-.47.24-.7.35a10,10,0,0,1-4.09.87,8.07,8.07,0,0,1-1.11-.07A10,10,0,0,1,462.19,203.13Z"/><circle class="cls-2" cx="470.92" cy="198.12" r="6.36"/></g><path class="cls-3" d="M457.14,204.63,334.93,313.82a42.58,42.58,0,0,0-19.08-11.62L455.33,198.34A17.19,17.19,0,0,0,457.14,204.63Z"/><path class="cls-2" d="M467.46,213.41a24.14,24.14,0,0,1-5.13-2.71,17.31,17.31,0,0,1-2.27-2.09l-120.9,110.2a42.34,42.34,0,0,1,7.69,24.37c0,.45,0,.89,0,1.33Z"/><path class="cls-4" d="M304.06,306.91a36.24,36.24,0,1,0,36.23,36.24A36.28,36.28,0,0,0,304.06,306.91Zm0,66.77a30.54,30.54,0,1,1,30.53-30.53A30.57,30.57,0,0,1,304.06,373.68Z"/><path class="cls-3" d="M372.67,469.64H358.84l-58.14-84c1.11.09,2.22.13,3.36.13a42.56,42.56,0,0,0,10-1.19Z"/><path class="cls-2" d="M380.13,469.64h20l-64.48-97.95a42.87,42.87,0,0,1-14.55,10.5Z"/><g id="layer1"><path id="path4955-6-0-37-4-4-6-4-7-7-7" class="cls-5" d="M299.22,316.49a27,27,0,0,0-21.37,21,30.33,30.33,0,0,0,0,10.86A26.92,26.92,0,0,0,303,369.78,26.46,26.46,0,0,0,316.28,367a26.88,26.88,0,0,0,12.83-13.86h-.82l-1,0-2.23-.06-1.24,0-.27.5a22.15,22.15,0,0,1-10.7,9.71,22.55,22.55,0,0,1-5.92,1.6,39.47,39.47,0,0,1-4.33.12,22,22,0,0,1-8.57-2.44,20.49,20.49,0,0,1-5.66-4.23,20.78,20.78,0,0,1-3.88-5.44,22.07,22.07,0,0,1,3-24.23,24.4,24.4,0,0,1,4.23-3.79,22.49,22.49,0,0,1,5.87-2.86,4,4,0,0,0,.76-.29c0-.08.78-4.3.8-4.32l.08-.81Zm6.35,6a.69.69,0,0,0-.29,0s-1.2,6.26-1.16,6.3.41.05.89.08a13.92,13.92,0,0,1,6.36,2c.85.52,1.06.67,1,.74s-1.16.92-2.09,1.67a11.28,11.28,0,0,0-6.18-1.84,11.35,11.35,0,0,0-10.59,15.49l-7.33,5.95,1.08,1.35c.59.74,1.51,1.86,2,2.49a7.43,7.43,0,0,0,1,1.1l7.38-5.67a11.29,11.29,0,0,0,6.46,2,11.43,11.43,0,0,0,11.38-11.38,11.29,11.29,0,0,0-.69-3.87c.72-.55,1.44-1.08,2.22-1.69a10.47,10.47,0,0,1,.93,2.82,14.7,14.7,0,0,1,.11,5.07,6.52,6.52,0,0,0-.11.7l3.14.1c1.72.05,3.18.09,3.23.08s.25-.87.3-2.53a19.42,19.42,0,0,0-1.09-7.25,20.35,20.35,0,0,0-10.24-11.63,19.73,19.73,0,0,0-5.4-1.8,21.71,21.71,0,0,0-2.27-.29Zm-7.58.91a19,19,0,0,0-3.18,1.3,20.48,20.48,0,0,0-11,16,27.92,27.92,0,0,0,0,4.66,21.2,21.2,0,0,0,1.65,5.92l5.3-4.08a14,14,0,0,1,5.3-15.8,1.93,1.93,0,0,0,.5-.46c.06-.27,1.37-7.5,1.36-7.52ZM304.06,337a5.79,5.79,0,1,1-5.79,5.79A5.76,5.76,0,0,1,304.06,337Zm10.16,15.69-.41.37a13.94,13.94,0,0,1-5.06,3.07,14.49,14.49,0,0,1-7.42.47,14.32,14.32,0,0,1-4.92-2.05l-4.94,4.33c.44.34,1,.75,1.39,1a20.65,20.65,0,0,0,9.4,3.33h0a26.88,26.88,0,0,0,4,0,20.3,20.3,0,0,0,12.37-5.91,19.35,19.35,0,0,0,3-3.73l.41-.67h-.54l-3.89-.09-3.36-.1Z"/></g><rect class="cls-3" x="153.46" y="474.7" width="406.5" height="85" rx="5.7"/><text class="cls-6" transform="translate(176.13 536.54)">CYB:ORG</text></g></g></svg>