<svg xmlns="http://www.w3.org/2000/svg" viewBox="0 0 406.5 409.13"><defs><style>.cls-1{fill:#395851;}.cls-2{font-size:58.15px;fill:#fff;font-family:RobotaurLaser, Robotaur Laser;}</style></defs><g id="Layer_2" data-name="Layer 2"><g id="Layer_1-2" data-name="Layer 1"><rect class="cls-1" y="324.13" width="406.5" height="85" rx="5.7"/><path class="cls-1" d="M88.32,185.18a77.09,77.09,0,0,0,63.38,75.76c1.2,1.68,17.36,24.85,18.63,26.71-1.67.08-3.36.12-5.05.12a102.59,102.59,0,1,1,55-189.12c-1.65,1.12-19.94,14.8-22.57,16.77A77,77,0,0,0,88.32,185.18Z"/><path class="cls-1" d="M218.9,272.62q3.87-2.4,7.51-5.11a.18.18,0,0,1,.07.05,102.51,102.51,0,0,0,41.26-77.07h0q.12-2.46.12-4.92c0-.12,0-.25,0-.38,0-.46,0-.92,0-1.38s0-.64,0-1h0c-.4-17.68-13.57-48.67-13.57-48.67s-16.62,18.12-18.52,20.08a76.84,76.84,0,0,1-2.11,66.27h0c-.62,1.2-1.26,2.39-1.95,3.57a77,77,0,0,1-7.49,10.58l0,0a77.39,77.39,0,0,1-19.32,16.5"/><path class="cls-1" d="M56.33,184.34v.16c0,.85,0,1.71,0,2.56l0,.86c0,.6,0,1.2.07,1.8,0,.31,0,.63.06.95,0,.58.06,1.14.1,1.71l.07.93c.05.59.11,1.18.16,1.77,0,.28,0,.55.09.83.07.65.14,1.31.22,2,0,.2.05.39.07.59.11.83.23,1.64.35,2.46,0,0,0,0,0,.07a109.21,109.21,0,0,0,90.51,91l.74.12,2.43.34c.35.05.71.08,1.07.12s1,.12,1.44.17l1.21.12,1.36.12,1.2.09,1.43.09,1.13.07,1.6.05,1,0c.8,0,1.59,0,2.39,0h.41l2.37,0c.34,0,.67,0,1,0l1.6-.05,1.14-.07,1.42-.09,1.21-.09,9.83,14.09-.13,13.75H146.64V305.14a121.44,121.44,0,0,1-53.51-22.23l-10.58,10.6L56.18,267.14l10.59-10.59a121.35,121.35,0,0,1-22.09-52.73h-15V166.54H44.44a121.48,121.48,0,0,1,22.33-54.28L56.18,101.67,82.55,75.3,93.13,85.89a121.66,121.66,0,0,1,53.51-22.22V49.53h37.28V63.67a121.71,121.71,0,0,1,53.51,22.22s-9,6.7-11.11,8.33a108.25,108.25,0,0,0-43.86-17.41l-.74-.12c-.81-.12-1.61-.23-2.42-.33l-1.07-.14-1.46-.16c-.39,0-.79-.08-1.19-.12l-1.37-.12-1.2-.09c-.47,0-.95-.07-1.43-.09s-.75,0-1.13-.06l-1.61-.06-1,0c-.81,0-1.62,0-2.44,0h-.3c-.81,0-1.63,0-2.44,0-.32,0-.64,0-1,0l-1.62.06c-.38,0-.75,0-1.12.06s-1,0-1.45.09l-1.18.09-1.38.12-1.19.12-1.48.17-1,.13c-.82.1-1.63.21-2.44.33l-.7.12A109.22,109.22,0,0,0,57.71,167.1l-.21,1.32c0,.34-.09.68-.14,1s-.13,1-.19,1.45c0,.22-.06.45-.08.69-.12.94-.21,1.88-.29,2.82,0,.4-.08.8-.11,1.19l-.1,1.24c0,.45-.05.91-.08,1.36s0,.75-.06,1.13l-.06,1.59,0,.94C56.34,182.68,56.33,183.51,56.33,184.34Z"/><path class="cls-1" d="M229.32,288.39q4.17-2.58,8.11-5.48L248,293.51l26.36-26.36-10.56-10.58A121.37,121.37,0,0,0,284,213.94h-.21c.83-3.32,1.53-6.69,2.07-10.12h15.05V166.54h-14.8A121.26,121.26,0,0,0,268.37,119c-1.36,1.57-6.75,7.43-9.3,10.07a108.16,108.16,0,0,1,13.78,38.07l.21,1.33c.05.33.09.67.14,1,.07.49.13,1,.19,1.46,0,.22.06.45.08.69.11.94.21,1.89.3,2.83,0,.39.07.79.11,1.18s.06.83.08,1.24l.09,1.36.06,1.13c0,.53.05,1.06.06,1.59l0,.94c0,.82,0,1.64,0,2.47v.2c0,.85,0,1.68,0,2.52,0,.3,0,.59,0,.88,0,.6,0,1.19-.07,1.79,0,.32,0,.63-.05.95,0,.58-.07,1.14-.11,1.71,0,.31-.05.62-.07.93-.06.59-.1,1.18-.17,1.77,0,.28-.05.55-.07.83-.07.65-.15,1.31-.23,2,0,.2,0,.39-.08.59-.1.82-.21,1.64-.34,2.46a.17.17,0,0,0,0,.08,107.8,107.8,0,0,1-6.83,24.63h.11a108.86,108.86,0,0,1-9.07,17.29h0c-1,1.59-2.08,3.14-3.17,4.68-.69,1-1.38,1.9-2.1,2.83A109.71,109.71,0,0,1,222,277.37"/><g id="Hand"><path class="cls-1" d="M359.1,4.43A2.29,2.29,0,0,1,358,5L313.53,18.78a22.81,22.81,0,0,1-3.73-3.33c-.85-1-1.15-2.36-1.71-3-.32-.37-.36-.78-.46-.85a9,9,0,0,0-3-1.51,15.48,15.48,0,0,0-2.18-.35L337.58,1c8.51-2.13,18.19-.78,21.56,3A.31.31,0,0,1,359.1,4.43Z"/><path class="cls-1" d="M365.48,13.39a1.78,1.78,0,0,0-.73.81s-20.44,34.37-20.44,34.73,1,.72,3.68,2.06c.64.44,1.94.86,2.63,1.23a3.07,3.07,0,0,1,.8.59A6.77,6.77,0,0,1,353,56.34a9.08,9.08,0,0,1,.11,1.81l13.35-26.9c3.23-6.52,3-14.53-.55-17.83A.41.41,0,0,0,365.48,13.39Z"/><path class="cls-1" d="M353.51,55.37c0-.12,0-.25-.07-.37a4.54,4.54,0,0,0-.54-1.33A4.65,4.65,0,0,0,350,51.5l-24.43-6.12q-.12-.36-.27-.72a7,7,0,0,0-.32-.75,12.65,12.65,0,0,0-6.13-6.07,7.27,7.27,0,0,0-.81-.34c-.25-.1-.52-.19-.78-.27l-.38-.1-4.38-12.78-.67-1.83-.68-1.84-2.95-8A4.67,4.67,0,0,0,305.7,10a3.85,3.85,0,0,0-.47-.19l-.2-.06a3.84,3.84,0,0,0-.46-.11h0a2.47,2.47,0,0,0-.38-.05,2.82,2.82,0,0,0-.41,0h-.34a1.33,1.33,0,0,0-.21,0,2,2,0,0,0-.34,0l-.38.09-.41.13a7.17,7.17,0,0,0-.69.3l-.34.17a2.58,2.58,0,0,0-.32.18c-.18.1-.35.21-.52.32,0,0,0,0,0,0a8.23,8.23,0,0,0-.93.72,8.53,8.53,0,0,0-.85.85l0,0c-.12.14-.24.28-.35.43s-.23.32-.34.49-.2.31-.29.46a.41.41,0,0,0-.07.11c-.09.16-.16.3-.24.46s-.16.33-.23.5l-.08.18-.15.42c-.07.19-.12.37-.18.56h0c0,.18-.09.34-.12.52a4.78,4.78,0,0,0-.11.66,4.88,4.88,0,0,0-.06.52.76.76,0,0,0,0,.15c0,.18,0,.37,0,.55a9.23,9.23,0,0,0,.15,1.66l4.67,30,0,0A12.6,12.6,0,0,0,302,54.56a11.38,11.38,0,0,0,.84,1.53,12.65,12.65,0,0,0,7.5,5.46,13.31,13.31,0,0,0,2.83.39h0l30.65,2.21.65,0,.64,0,.64-.07c.21,0,.42-.06.63-.11h0l.52-.13c.24-.07.48-.14.72-.23l.5-.2.07,0,.52-.24s0,0,0,0,.29-.16.42-.25l.1-.05.52-.34a0,0,0,0,1,0,0,3.39,3.39,0,0,0,.42-.33,6.19,6.19,0,0,0,.55-.47l.33-.32.19-.2c.11-.12.21-.24.31-.37s.26-.33.38-.49a6.78,6.78,0,0,0,.55-.88,7.77,7.77,0,0,0,.63-1.41,2.83,2.83,0,0,0,.11-.31,3.17,3.17,0,0,0,.12-.44,4.7,4.7,0,0,0,.14-1.53C353.54,55.6,353.53,55.49,353.51,55.37Zm-48.7-1a9.79,9.79,0,0,1-.74-1.57,10,10,0,0,1-.6-3.44,10.3,10.3,0,0,1,.2-2,10.09,10.09,0,0,1,.45-1.54,7.19,7.19,0,0,1,.32-.76q.19-.41.42-.78A10,10,0,0,1,318.4,40.5a8.53,8.53,0,0,1,.76.46c.22.15.43.31.65.48A10.73,10.73,0,0,1,321.39,43a9.3,9.3,0,0,1,.59.81,7.37,7.37,0,0,1,.45.77h0a10,10,0,0,1,1.18,4.7,10.09,10.09,0,0,1-4.55,8.42h0c-.23.15-.47.3-.71.43s-.47.24-.71.35a10.06,10.06,0,0,1-5.19.81A10.11,10.11,0,0,1,304.81,54.32Z"/><circle class="cls-1" cx="313.54" cy="49.31" r="6.36"/></g><path class="cls-1" d="M299.76,55.82,177.56,165a42.79,42.79,0,0,0-19.09-11.62L298,49.53A17.38,17.38,0,0,0,299.76,55.82Z"/><path class="cls-1" d="M310.09,64.6A24.11,24.11,0,0,1,305,61.89a17.31,17.31,0,0,1-2.27-2.09L181.78,170a42.26,42.26,0,0,1,7.69,24.37c0,.45,0,.89,0,1.33Z"/><path class="cls-1" d="M146.68,158.1a36.24,36.24,0,1,0,36.24,36.24A36.28,36.28,0,0,0,146.68,158.1Zm0,66.77a30.54,30.54,0,1,1,30.54-30.53A30.56,30.56,0,0,1,146.68,224.87Z"/><path class="cls-1" d="M215.3,320.83H201.46l-58.14-84c1.11.09,2.23.13,3.36.13a42.5,42.5,0,0,0,10-1.19Z"/><path class="cls-1" d="M222.76,320.83h20l-64.48-97.95a42.68,42.68,0,0,1-14.55,10.5Z"/><g id="layer1"><path id="path4955-6-0-37-4-4-6-4-7-7-7" class="cls-1" d="M141.85,167.68a27,27,0,0,0-21.38,21,30.33,30.33,0,0,0,0,10.86A26.94,26.94,0,0,0,145.62,221a26.48,26.48,0,0,0,13.29-2.83,26.88,26.88,0,0,0,12.82-13.85l-.82,0-1,0c-.54,0-1.55,0-2.23-.06l-1.23,0-.28.5A22.07,22.07,0,0,1,149.56,216a39.41,39.41,0,0,1-4.33.12,21.9,21.9,0,0,1-8.56-2.44,22.16,22.16,0,0,1-9.54-9.67,22,22,0,0,1,3-24.23,24.77,24.77,0,0,1,4.23-3.79,22.64,22.64,0,0,1,5.87-2.86,3.32,3.32,0,0,0,.76-.29c0-.08.79-4.3.81-4.32l.08-.81Zm6.34,6a.71.71,0,0,0-.29,0c-.05.05-1.19,6.26-1.16,6.3s.42.05.9.08a13.84,13.84,0,0,1,6.35,2c.86.52,1.06.68,1,.74s-1.17.92-2.09,1.67a11.36,11.36,0,0,0-16.78,13.65l-7.32,6,1.08,1.35c.59.74,1.5,1.86,2,2.49.93,1.12,1,1.1,1,1.1l7.37-5.67a11.3,11.3,0,0,0,6.47,2A11.42,11.42,0,0,0,158.06,194a11.06,11.06,0,0,0-.69-3.87c.73-.55,1.44-1.08,2.22-1.69a10.12,10.12,0,0,1,.93,2.82,14.23,14.23,0,0,1,.11,5.07c-.07.38-.11.69-.11.7l3.15.1c1.72.05,3.17.09,3.22.08s.25-.87.3-2.53a19.41,19.41,0,0,0-1.08-7.25,20.41,20.41,0,0,0-10.24-11.63,19.73,19.73,0,0,0-5.4-1.8,21.86,21.86,0,0,0-2.28-.29Zm-7.58.91a18.68,18.68,0,0,0-3.17,1.3,20.45,20.45,0,0,0-11,16,26.88,26.88,0,0,0,0,4.66,21.21,21.21,0,0,0,1.66,5.92l5.3-4.08a14,14,0,0,1,5.29-15.8,1.62,1.62,0,0,0,.5-.46c.07-.27,1.37-7.5,1.36-7.52Zm6.08,13.59a5.8,5.8,0,1,1-5.8,5.79A5.75,5.75,0,0,1,146.69,188.22Zm10.16,15.69-.42.37a13.86,13.86,0,0,1-5.06,3.07,13.28,13.28,0,0,1-4.1.74,13.15,13.15,0,0,1-3.31-.27,14.5,14.5,0,0,1-4.92-2l-4.94,4.32c.43.34,1,.75,1.38,1a20.69,20.69,0,0,0,9.4,3.33h0a26.88,26.88,0,0,0,4,0,20.32,20.32,0,0,0,12.38-5.91,19.3,19.3,0,0,0,2.95-3.73l.41-.67h-.53l-3.89-.09-3.36-.1Z"/></g><text class="cls-2" transform="translate(29.63 385.92)">CYB:ORG</text></g></g></svg>