<svg xmlns="http://www.w3.org/2000/svg" viewBox="0 0 406.5 407.9"><defs><style>.cls-1{fill:#fff;}</style></defs><g id="Layer_2" data-name="Layer 2"><g id="Layer_1-2" data-name="Layer 1"><path class="cls-1" d="M93.61,183.12A76.23,76.23,0,0,0,156.28,258c1.18,1.65,17.17,24.57,18.42,26.41-1.65.08-3.32.12-5,.12a101.45,101.45,0,1,1,54.43-187c-1.63,1.11-19.72,14.64-22.32,16.58a76.09,76.09,0,0,0-108.21,69Z"/><path class="cls-1" d="M222.73,269.58q3.84-2.35,7.43-5.05l.07.05A101.41,101.41,0,0,0,271,188.37h0c.08-1.63.12-3.25.12-4.87,0-.13,0-.25,0-.38,0-.46,0-.91,0-1.36s0-.64,0-1h0c-.39-17.48-13.42-48.13-13.42-48.13s-16.44,17.91-18.31,19.85a76.05,76.05,0,0,1-2.09,65.54h0c-.61,1.18-1.25,2.36-1.93,3.52a76,76,0,0,1-7.4,10.47l-.05,0a76.85,76.85,0,0,1-19.1,16.32"/><path class="cls-1" d="M62,182.29v.15c0,.85,0,1.69,0,2.54l0,.85c0,.59,0,1.18.07,1.78,0,.31,0,.63.06.94,0,.57.06,1.13.1,1.69l.07.92c.05.59.1,1.17.16,1.75,0,.27,0,.54.08.82.07.64.15,1.3.22,1.94,0,.19.05.38.07.58.11.82.22,1.63.35,2.44,0,0,0,0,0,.06a108,108,0,0,0,89.5,90l.73.12,2.4.34,1.06.12,1.43.17,1.19.11,1.35.12,1.19.09,1.41.09,1.12.06,1.58.06,1,0c.79,0,1.57,0,2.37,0h.4l2.35,0,1,0,1.58-.06,1.13-.06,1.4-.09,1.2-.09,9.72,13.93-.13,13.6H151.27V301.75a120.21,120.21,0,0,1-52.91-22L87.9,290.24,61.83,264.17l10.46-10.48a120.11,120.11,0,0,1-21.84-52.14H35.57V164.68H50.21A120.2,120.2,0,0,1,72.29,111L61.83,100.54,87.9,74.46,98.36,84.94a120.21,120.21,0,0,1,52.91-22V49h36.87V63a120.25,120.25,0,0,1,52.92,22s-8.87,6.62-11,8.23A107.17,107.17,0,0,0,186.7,76c-.25,0-.48-.09-.73-.12q-1.2-.18-2.4-.33l-1-.13-1.44-.17-1.19-.11q-.67-.07-1.35-.12c-.39,0-.78-.07-1.18-.09s-1-.07-1.42-.09-.74,0-1.12-.06q-.8,0-1.59-.06c-.32,0-.64,0-1,0-.8,0-1.6,0-2.41,0h-.3c-.8,0-1.61,0-2.41,0l-1,0-1.61.06c-.37,0-.73,0-1.1.06s-1,0-1.43.09-.79.06-1.17.09-.91.07-1.37.12l-1.17.11-1.46.17-1,.13c-.81.1-1.6.21-2.4.33l-.7.11a108,108,0,0,0-89.41,89.3l-.21,1.29c-.05.34-.09.68-.14,1s-.13,1-.19,1.42c0,.23,0,.46-.08.69-.11.93-.2,1.86-.29,2.79,0,.4-.07.79-.11,1.18l-.09,1.22c0,.45,0,.9-.08,1.34s0,.75-.06,1.13L62,178.91l0,.92C62,180.65,62,181.47,62,182.29Z"/><path class="cls-1" d="M233,285.18q4.11-2.55,8-5.41l10.47,10.47,26.07-26.07-10.45-10.45a120,120,0,0,0,20-42.16h-.21q1.23-4.94,2.05-10h14.88V164.69H289.21a120,120,0,0,0-17.56-47.06c-1.34,1.56-6.67,7.36-9.19,10a107,107,0,0,1,13.62,37.65l.21,1.31c0,.33.09.67.14,1s.13.95.19,1.44c0,.22.05.45.08.68.11.93.21,1.87.29,2.8,0,.39.08.78.11,1.17s.06.81.08,1.22l.09,1.35c0,.36,0,.74.06,1.12l.06,1.56,0,.93c0,.82,0,1.62,0,2.45v.2c0,.83,0,1.66,0,2.49,0,.29,0,.58,0,.87,0,.59,0,1.18-.07,1.77,0,.31,0,.63-.05.94,0,.57-.07,1.13-.11,1.69,0,.31-.05.62-.07.92,0,.59-.1,1.17-.16,1.75,0,.27-.06.54-.08.82-.07.64-.14,1.3-.22,1.94,0,.19-.05.39-.08.59-.1.8-.21,1.62-.34,2.42v.08a107,107,0,0,1-6.76,24.36h.11a107.29,107.29,0,0,1-9,17.1h0q-1.51,2.35-3.14,4.62c-.68.94-1.36,1.88-2.07,2.81a108.69,108.69,0,0,1-29.52,26.64"/><g id="Hand"><path class="cls-1" d="M361.37,4.38a2.26,2.26,0,0,1-1.1.57l-44,13.62a22.3,22.3,0,0,1-3.69-3.29c-.84-1-1.14-2.33-1.69-3-.31-.36-.36-.77-.46-.84A8.67,8.67,0,0,0,307.54,10a15,15,0,0,0-2.16-.35L340.1,1c8.41-2.1,18-.77,21.32,3C361.55,4.1,361.46,4.27,361.37,4.38Z"/><path class="cls-1" d="M367.68,13.24a1.84,1.84,0,0,0-.72.8s-20.21,34-20.21,34.34,1,.71,3.64,2c.63.43,1.92.86,2.59,1.22a2.82,2.82,0,0,1,.8.58,6.69,6.69,0,0,1,1.59,3.49,9,9,0,0,1,.11,1.8l13.2-26.61c3.2-6.45,2.95-14.36-.55-17.63A.39.39,0,0,0,367.68,13.24Z"/><path class="cls-1" d="M355.85,54.76c0-.13,0-.25-.07-.37a4.72,4.72,0,0,0-3.43-3.47l-24.16-6a6.93,6.93,0,0,0-.26-.72,6.73,6.73,0,0,0-.32-.73,12.61,12.61,0,0,0-6.06-6c-.26-.12-.52-.23-.8-.33a7,7,0,0,0-.77-.26l-.37-.1-4.33-12.64-.67-1.81-.67-1.82L311,12.53a4.66,4.66,0,0,0-2.45-2.63,3.85,3.85,0,0,0-.47-.19l-.19-.06a4.35,4.35,0,0,0-.46-.11h0a2.32,2.32,0,0,0-.38,0l-.4,0h-.34l-.2,0a1.86,1.86,0,0,0-.34,0l-.38.09-.4.13c-.24.09-.46.19-.69.3l-.33.16-.31.18c-.18.1-.35.21-.52.32,0,0,0,0,0,0a8,8,0,0,0-.92.71,8.33,8.33,0,0,0-.84.84l0,0c-.11.14-.24.28-.34.43l-.35.48c-.1.15-.19.31-.28.46a.41.41,0,0,0-.07.11l-.24.45c-.08.16-.16.33-.23.5a1,1,0,0,0-.07.18l-.15.41c-.07.18-.12.37-.18.55h0l-.12.51c0,.22-.08.44-.11.66s0,.34-.06.52v.14a5,5,0,0,0,0,.55,9.16,9.16,0,0,0,.14,1.64l4.62,29.67,0,0A12.59,12.59,0,0,0,305,54a11.6,11.6,0,0,0,.83,1.51,12.46,12.46,0,0,0,7.42,5.4,13,13,0,0,0,2.8.39h0l30.3,2.18c.22,0,.43,0,.65,0s.42,0,.63,0a6.12,6.12,0,0,0,.63-.06l.62-.11h0l.51-.13c.24-.07.47-.14.71-.23a3.47,3.47,0,0,0,.5-.2l.06,0,.52-.25h0c.14-.08.29-.16.42-.25l.1,0a4.52,4.52,0,0,0,.51-.34h0a4.12,4.12,0,0,0,.41-.32c.19-.15.37-.3.54-.46a3.43,3.43,0,0,0,.33-.33l.19-.19.31-.36c.13-.16.25-.33.37-.49a6.68,6.68,0,0,0,.55-.87,7.55,7.55,0,0,0,.62-1.39,2.22,2.22,0,0,0,.1-.31c.05-.14.09-.29.13-.44a4.55,4.55,0,0,0,.13-1.51A2,2,0,0,0,355.85,54.76Zm-48.16-1a8.87,8.87,0,0,1-.73-1.56,9.79,9.79,0,0,1-.6-3.39,10,10,0,0,1,.2-2,10.8,10.8,0,0,1,.44-1.53c.1-.26.21-.5.32-.75s.27-.52.41-.78a9.93,9.93,0,0,1,13.4-3.67l.75.45c.22.15.43.31.64.48a11,11,0,0,1,1.57,1.56c.2.26.4.52.58.8a7.3,7.3,0,0,1,.44.77h0a9.79,9.79,0,0,1,1.17,4.66,10,10,0,0,1-4.51,8.32h0a7.34,7.34,0,0,1-.71.42c-.22.13-.46.24-.69.35a10,10,0,0,1-4.05.86,9.82,9.82,0,0,1-1.09-.06A10,10,0,0,1,307.69,53.72Z"/><circle class="cls-1" cx="316.32" cy="48.76" r="6.29"/></g><path class="cls-1" d="M302.7,55.2l-120.85,108A42.18,42.18,0,0,0,163,151.69L300.91,49A17.06,17.06,0,0,0,302.7,55.2Z"/><path class="cls-1" d="M312.9,63.88a23.84,23.84,0,0,1-5.07-2.68,17.57,17.57,0,0,1-2.25-2.06L186,168.11a41.83,41.83,0,0,1,7.6,24.1c0,.44,0,.88,0,1.32Z"/><path class="cls-1" d="M151.32,156.34a35.84,35.84,0,1,0,35.83,35.84A35.87,35.87,0,0,0,151.32,156.34Zm0,66a30.2,30.2,0,1,1,30.2-30.19A30.23,30.23,0,0,1,151.32,222.37Z"/><path class="cls-1" d="M219.17,317.26H205.49L148,234.18c1.1.08,2.21.13,3.33.13a41.64,41.64,0,0,0,9.92-1.19Z"/><path class="cls-1" d="M226.55,317.26h19.78L182.57,220.4a42.29,42.29,0,0,1-14.39,10.38Z"/><g id="layer1"><path id="path4955-6-0-37-4-4-6-4-7-7-7" class="cls-1" d="M146.54,165.82a26.66,26.66,0,0,0-21.14,20.76,29.67,29.67,0,0,0,0,10.74,26.62,26.62,0,0,0,24.87,21.19,26.13,26.13,0,0,0,13.14-2.8A26.59,26.59,0,0,0,176.09,202l-.81,0h-1l-2.2-.06-1.23,0-.27.51a21.81,21.81,0,0,1-16.43,11.18,38.75,38.75,0,0,1-4.29.12,21.88,21.88,0,0,1-8.47-2.41,22,22,0,0,1-9.43-9.57,21.85,21.85,0,0,1,2.94-24,24.75,24.75,0,0,1,4.19-3.75,22.61,22.61,0,0,1,5.8-2.83,4.09,4.09,0,0,0,.75-.28c0-.08.78-4.26.8-4.28l.08-.79Zm6.27,6c-.16,0-.27,0-.28,0s-1.19,6.19-1.15,6.23.41.05.88.08a13.62,13.62,0,0,1,6.29,1.94c.84.51,1,.66.95.73l-2.07,1.65a11.14,11.14,0,0,0-6.11-1.82,11.28,11.28,0,0,0-11.24,11.24,11.09,11.09,0,0,0,.77,4.08l-7.25,5.88,1.07,1.33c.59.74,1.49,1.85,2,2.47.92,1.11,1,1.09,1,1.09l7.29-5.61a11.23,11.23,0,0,0,17-13.07c.72-.54,1.42-1.06,2.19-1.66a10.29,10.29,0,0,1,.93,2.78,14.66,14.66,0,0,1,.1,5l-.11.69,3.11.1,3.2.08c.14,0,.24-.87.29-2.5a19.24,19.24,0,0,0-1.07-7.18,20.16,20.16,0,0,0-10.13-11.49,19.32,19.32,0,0,0-5.34-1.79c-.72-.13-1.75-.25-2.25-.28Zm-7.49.9a18.06,18.06,0,0,0-3.14,1.29,20.19,20.19,0,0,0-10.85,15.8,28.28,28.28,0,0,0,0,4.6,21,21,0,0,0,1.64,5.85l5.24-4a13.66,13.66,0,0,1-.22-7.76,13.8,13.8,0,0,1,5.46-7.86,1.85,1.85,0,0,0,.49-.45c.07-.28,1.36-7.43,1.35-7.44Zm6,13.44a5.73,5.73,0,1,1-5.72,5.72A5.68,5.68,0,0,1,151.32,186.13Zm10.05,15.52L161,202a13.74,13.74,0,0,1-5,3,14.18,14.18,0,0,1-7.34.47,14.36,14.36,0,0,1-4.86-2l-4.89,4.27c.44.34,1,.74,1.37,1a20.5,20.5,0,0,0,9.3,3.3h0a27.73,27.73,0,0,0,4,0,20.13,20.13,0,0,0,12.23-5.85,18.9,18.9,0,0,0,2.92-3.69l.41-.66h-.53l-3.85-.09-3.32-.09Z"/></g><path class="cls-1" d="M403.31,322.9H3.18A3.18,3.18,0,0,0,0,326.08v78.64a3.18,3.18,0,0,0,3.18,3.18H403.31a3.18,3.18,0,0,0,3.19-3.18V326.08A3.18,3.18,0,0,0,403.31,322.9ZM78,384.89H39.17L28.91,374.57v-18H41.76l-2.53,2.53v10.26l5.25,5.19H72.85L78,379.64Zm0-36-5.19,5.07H28.91l10.26-10.32H78Zm5.25-5.25h10.2l10.45,10.32H83.29Zm30.9,25.89v10.26l-5.12,5.13h-5.2V369.44L91.21,356.59h15.45l2.41,2.35,2.34-2.35h15.45Zm20.65-15.57H114.13l10.51-10.32h10.2Zm56.85,8-2.59,2.35,2.59,2.35v13.16l-5.13,5.13H145.22l-5.13-5.13V356.59h10.32v18h31v-5.19H155.6V359.06h25.71l-2.53-2.47h12.91Zm-51.6-8v-5.19l5.13-5.13h36.21l10.26,10.32Zm67.12,31H196.88V374.57h10.33Zm0-20.95H196.88v-7.35h10.33Zm0-10H196.88v-.31h10.33ZM264,379.76l-5.13,5.13H222.72L212.4,374.57v-18h10.32v12.79l5.25,5.19h25.71V359.12l-2.6-2.53H264Zm-51.6-25.83v-5.19l5.13-5.13h36.15L264,353.93Zm67.11,25.83-5.13,5.13h-5.19v-28.3h10.32Zm41.28-15.51-10.44,10.26,8.34,10.38H305.78l-8.35-10.26H284.7V364.25h20.52l5.25-5.13-2.59-2.53h12.91Zm-51.6-10.32v-5.19l5.13-5.13h36.15l10.32,10.32Zm108.4,25.83-5.13,5.13H336.25L326,374.57v-18h12.85l-2.53,2.53v10.26l5.25,5.19h25.71v-5.19H346.63V359.06h25.83l5.13,5.13Zm0-30.9-5.19,5.07H326l10.26-10.32h41.34Z"/></g></g></svg>