<svg width="35" height="34" viewBox="0 0 35 34" fill="none" xmlns="http://www.w3.org/2000/svg">
<g id="mdi:twitter">
<path id="Vector" d="M30.7171 8.95103C29.7898 9.36584 28.7902 9.63844 27.7545 9.76881C28.8143 9.14066 29.6332 8.1451 30.0186 6.94807C29.0191 7.54066 27.9111 7.95547 26.7429 8.19251C25.7916 7.17325 24.4548 6.58066 22.9374 6.58066C20.1073 6.58066 17.7951 8.85621 17.7951 11.6651C17.7951 12.0681 17.8432 12.4592 17.9275 12.8266C13.6402 12.6133 9.82264 10.5866 7.28158 7.51695C6.83599 8.26362 6.58309 9.14066 6.58309 10.0651C6.58309 11.831 7.48631 13.3955 8.88329 14.2844C8.02824 14.2844 7.23341 14.0473 6.53492 13.6918V13.7273C6.53492 16.1925 8.31727 18.2547 10.6777 18.717C9.91986 18.9211 9.12426 18.9495 8.3534 18.7999C8.6805 19.8103 9.3211 20.6943 10.1852 21.3278C11.0492 21.9613 12.0933 22.3124 13.1706 22.3318C11.3444 23.7545 9.08079 24.5236 6.75169 24.5125C6.34223 24.5125 5.93277 24.4888 5.52332 24.4414C7.81147 25.8873 10.5332 26.7288 13.4476 26.7288C22.9374 26.7288 28.152 18.9777 28.152 12.2577C28.152 12.0325 28.152 11.8192 28.1399 11.594C29.1515 10.8829 30.0186 9.98214 30.7171 8.95103Z" fill="#57A88C"/>
</g>
</svg>
